<svg width="111" height="110" viewBox="0 0 111 110" fill="none" xmlns="http://www.w3.org/2000/svg">
<path d="M37.0962 27.0302H57.7212M37.0962 30.2033H51.6923M37.0962 33.3764H45.9808M61.2115 39.4052H73.2692M67.2404 45.4341V33.3764M53.5962 95.41H51.375C49.6226 95.41 48.2019 93.9893 48.2019 92.2369V90.0158H62.4808V92.2374C62.4808 93.9899 61.0601 95.41 59.3077 95.41H57.4038M53.5962 95.41V100.17C53.5962 100.52 53.8803 100.804 54.2308 100.804H55.5H56.7692C57.1197 100.804 57.4038 100.52 57.4038 100.17V95.41M53.5962 95.41H57.4038M47.8846 11.4821C48.8365 9.78978 55.5 2.75612 63.4327 11.4821M55.5 22.9052H35.9231C34.8185 22.9052 33.9231 23.8006 33.9231 24.9052V47.2418C33.9231 48.3463 34.8185 49.2418 35.9231 49.2418H55.5H75.0769C76.1815 49.2418 77.0769 48.3463 77.0769 47.2418V24.9052C77.0769 23.8006 76.1815 22.9052 75.0769 22.9052H55.5ZM22.5 70.0156C22.5 49.468 22.5 43.1913 22.5 20.8413C22.5 17.3527 24.7635 14.2627 28.1918 13.6167C40.0044 11.3906 62.2317 9.77878 82.4311 13.6281C86.0243 14.3128 88.5 17.5327 88.5 21.1906V70.0287C88.5 76.0698 85.5444 81.8835 80.0646 84.4263C64.2315 91.7732 46.7685 91.7732 30.9354 84.4263C25.4556 81.8835 22.5 76.0566 22.5 70.0156Z" stroke="white" stroke-width="2"/>
</svg>
