<svg width="111" height="110" viewBox="0 0 111 110" fill="none" xmlns="http://www.w3.org/2000/svg">
<path d="M22.4286 71.7064L71.1628 22.991M22.4286 71.7064C22.4286 71.7064 37.3966 86.6687 37.7511 87.023M22.4286 71.7064C21.5775 70.8556 20.1586 70.8555 19.3074 71.7064C18.0295 72.9837 14.972 76.0402 13.1174 77.8941M71.1628 22.991C70.3117 22.1402 70.3117 20.722 71.163 19.8711L77.458 13.5785M71.1628 22.991L86.4886 38.3109M37.7511 87.023C38.6024 87.874 38.6024 89.2922 37.7511 90.1431M37.7511 87.023C56.8248 67.9566 86.4065 38.3868 86.4853 38.308C86.487 38.3063 86.4869 38.3092 86.4886 38.3109V38.3109M37.7511 90.1431C35.9937 91.8767 34.4878 93.4053 34.4878 93.4053L37.8907 96.8069M37.7511 90.1431L31.5611 96.3308M37.7511 90.1431L41.1538 93.5451M89.6592 38.2554C88.8089 39.1053 87.3401 39.1587 86.4886 38.3109M89.6592 38.2554C89.6592 38.2554 91.1647 36.727 92.9222 34.9934L96.327 38.397M89.6592 38.2554L93.064 41.6589M89.6592 38.2554L95.9015 32.0151M96.327 38.397L96.8425 37.8818C97.4692 37.2553 98.485 37.2554 99.1117 37.8818V37.8818C99.7387 38.5086 99.7387 39.525 99.1116 40.1518L98.5971 40.6662M96.327 38.397L93.064 41.6589M98.5971 40.6662C98.5971 40.6662 99.984 42.0526 100.297 42.3659C100.611 42.6792 100.54 43.258 100.226 43.5713L98.0984 45.6987C97.7849 46.012 97.3477 45.9411 97.0343 45.6278L95.334 43.9281M98.5971 40.6662L95.334 43.9281M93.064 41.6589L92.5863 42.1365C91.9593 42.7632 91.9593 43.7797 92.5863 44.4064V44.4064C93.2129 45.0329 94.2287 45.0329 94.8554 44.4064L95.334 43.9281M77.458 13.5785L78.3986 12.6382C79.2497 11.7872 80.6685 11.7873 81.5198 12.6382L87.1925 18.3089M77.458 13.5785L95.9015 32.0151M95.9015 32.0151L96.8421 31.0748C97.6934 30.2239 97.6933 28.8057 96.8423 27.955L91.1651 22.2799M13.1174 77.8941C12.8851 78.1263 12.3924 78.6189 12.2137 78.7975C11.3626 79.6486 11.2207 81.2086 12.0719 82.0595L17.7447 87.7301M13.1174 77.8941L31.5611 96.3308M31.5611 96.3308L30.3736 97.5178C29.5226 98.3689 28.2456 98.2271 27.3944 97.3762L21.7172 91.7012M87.1925 18.3089L92.2132 13.2902C92.6037 12.8998 93.2366 12.8998 93.6271 13.2902L96.1852 15.8473C96.5759 16.2378 96.5759 16.8712 96.1852 17.2618L91.1651 22.2799M87.1925 18.3089L91.1651 22.2799M17.7447 87.7301L13.6099 91.8634C13.2192 92.254 13.2192 92.8873 13.6099 93.2779L16.168 95.8349C16.5585 96.2253 17.1914 96.2253 17.5819 95.8349L21.7172 91.7012M17.7447 87.7301L21.7172 91.7012M41.1538 93.5451L41.7035 92.9956C42.3302 92.3692 43.3459 92.3692 43.9726 92.9956V92.9956C44.5996 93.6224 44.5996 94.6388 43.9726 95.2656L43.4238 95.8142M41.1538 93.5451L37.4472 97.2502C36.8202 97.877 36.8202 98.8935 37.4472 99.5202V99.5202C38.0739 100.147 39.0897 100.147 39.7164 99.5202L40.1607 99.076M43.4238 95.8142C43.4238 95.8142 44.8426 97.2324 45.1263 97.516C45.4101 97.7997 45.3918 98.3852 45.1081 98.6689C44.8243 98.9525 43.2637 100.513 42.9799 100.796C42.6962 101.08 42.147 101.062 41.8632 100.778C41.5795 100.494 40.1607 99.076 40.1607 99.076M43.4238 95.8142L40.1607 99.076M68.4723 41.3202L61.6401 48.2145C60.4664 49.3989 58.5521 49.3989 57.3783 48.2145L57.0662 47.8995C55.9074 46.7302 55.9074 44.8455 57.0662 43.6761L63.8984 36.7819C65.0721 35.5975 66.9864 35.5975 68.1602 36.7819L68.4723 37.0968C69.6311 38.2662 69.6311 40.1509 68.4723 41.3202Z" stroke="white" stroke-width="2"/>
</svg>
