<svg width="111" height="110" viewBox="0 0 111 110" fill="none" xmlns="http://www.w3.org/2000/svg">
<path d="M69.5828 31.5876C73.0107 31.5876 75.7998 28.7986 75.7998 25.3703V11.2173C75.7998 7.78906 73.0107 5 69.5828 5H43.7764C40.3485 5 37.5594 7.78906 37.5594 11.2173V25.3703C37.5594 28.7986 40.3485 31.5876 43.7764 31.5876H52.659V38.9462H48.7119L48.6998 38.4414C48.6481 36.2912 47.3952 34.4132 45.4297 33.54C43.4649 32.6669 41.2306 32.9963 39.6007 34.3994L34.3506 38.9204C34.3038 38.9607 34.2604 39.0048 34.2218 39.0527C32.8937 40.6763 31.0358 40.7625 29.7395 40.2997C28.4431 39.8376 27.0586 38.5958 27.0586 36.4976V31.3126L34.514 28.2796C34.913 28.1173 35.1735 27.7297 35.1735 27.299V16.8847C35.1735 16.8633 35.1727 16.8421 35.1714 16.8211V6.05893C35.1714 5.47418 34.6973 5.00037 34.1129 5.00037H19.1084C18.524 5.00037 18.0498 5.47416 18.0498 6.05893V16.8847V27.2976V27.299C18.0498 27.7294 18.3103 28.117 18.7093 28.2793L24.9415 30.8167V36.4976C24.9415 39.133 26.5451 41.4082 29.0282 42.2938C31.4768 43.1677 34.1273 42.4513 35.7993 40.4669L40.9818 36.0038C42.0004 35.1272 43.3408 34.9284 44.5703 35.4749C45.7983 36.0204 46.5509 37.1482 46.5826 38.492L46.5935 38.9462H44.7722C40.795 38.9462 37.5594 42.1818 37.5594 46.1587V92.5233C37.5594 94.6887 38.5186 96.6341 40.0342 97.9573C40.5317 101.385 42.3058 103.781 44.5455 103.781C46.373 103.781 47.8905 102.186 48.6574 99.7364H64.7019C65.4688 102.186 66.9862 103.781 68.8138 103.781C71.0535 103.781 72.8275 101.385 73.325 97.9573C74.8406 96.6341 75.7998 94.6887 75.7998 92.5233V46.1587C75.7998 42.1818 72.5642 38.9462 68.587 38.9462H60.6995V31.5876H69.5828ZM33.0543 7.11749V15.8261H20.167V7.11749H33.0543ZM20.167 26.5857V17.9432H33.0564V26.5867L26.6086 29.2097L20.167 26.5871V26.5857ZM73.6827 46.1587V92.5233C73.6827 95.3333 71.3967 97.6193 68.587 97.6193H44.7722C41.9625 97.6193 39.6765 95.3333 39.6765 92.5233V46.1587C39.6765 43.3489 41.9625 41.0633 44.7722 41.0633H68.587C71.3967 41.0633 73.6827 43.3489 73.6827 46.1587ZM68.8137 101.664C68.1584 101.664 67.4608 100.933 66.9637 99.7364H68.587C69.3577 99.7364 70.1003 99.6144 70.7972 99.3895C70.297 100.79 69.5301 101.664 68.8137 101.664ZM44.5455 101.664C43.8291 101.664 43.0622 100.79 42.562 99.3896C43.2589 99.6144 44.0015 99.7364 44.7722 99.7364H46.3954C45.8984 100.933 45.2008 101.664 44.5455 101.664ZM54.7761 38.9462V31.5876H58.5824V38.9462H54.7761ZM39.6765 11.2173C39.6765 8.95651 41.5159 7.11713 43.7764 7.11713H69.5828C71.8433 7.11713 73.6827 8.95651 73.6827 11.2173V25.3703C73.6827 27.6311 71.8433 29.4705 69.5828 29.4705H43.7764C41.5159 29.4705 39.6765 27.6311 39.6765 25.3703V11.2173Z" fill="white"/>
<path d="M44.6927 43.8149C43.0352 43.8149 41.6865 45.1636 41.6865 46.8218V50.2914C41.6865 51.9495 43.0352 53.2982 44.6927 53.2982H68.668C70.3261 53.2982 71.6748 51.9495 71.6748 50.2914V46.8218C71.6748 45.1636 70.3261 43.8149 68.668 43.8149H44.6927ZM69.5577 46.8218V50.2914C69.5577 50.782 69.1587 51.1811 68.668 51.1811H44.6927C44.2027 51.1811 43.8036 50.7821 43.8036 50.2914V46.8218C43.8036 46.3311 44.2027 45.932 44.6927 45.932H68.668C69.1587 45.9321 69.5577 46.3311 69.5577 46.8218Z" fill="white"/>
<path d="M59.1649 57.1177H54.1967C52.3428 57.1177 50.835 58.6259 50.835 60.4798V61.7161C50.835 63.57 52.3429 65.0782 54.1967 65.0782H59.1649C61.0188 65.0782 62.5266 63.57 62.5266 61.7161V60.4798C62.5266 58.6259 61.0187 57.1177 59.1649 57.1177ZM60.4095 61.7161C60.4095 62.4025 59.8513 62.9611 59.1649 62.9611H54.1967C53.5103 62.9611 52.9521 62.4025 52.9521 61.7161V60.4798C52.9521 59.7934 53.5103 59.2348 54.1967 59.2348H59.1649C59.8513 59.2348 60.4095 59.7934 60.4095 60.4798V61.7161Z" fill="white"/>
<path d="M44.5459 26.6806H68.8134C69.3978 26.6806 69.872 26.2068 69.872 25.622V10.9663C69.872 10.3815 69.3978 9.90771 68.8134 9.90771H44.5459C43.9615 9.90771 43.4873 10.3815 43.4873 10.9663V25.622C43.4873 26.2068 43.9615 26.6806 44.5459 26.6806ZM45.6044 12.0248H67.7549V24.5635H45.6044V12.0248Z" fill="white"/>
</svg>
